<svg xmlns="http://www.w3.org/2000/svg" xmlns:xlink="http://www.w3.org/1999/xlink" width="704pt" height="587pt" viewBox="0.00 0.00 704.00 587.00">
<g id="graph0" class="graph" transform="scale(1 1) rotate(0) translate(4 582.6)">
<title>AlisverisSistemi</title>
<polygon fill="white" stroke="none" points="-4,4 -4,-582.6 699.7,-582.6 699.7,4 -4,4"/>
<!-- Start -->
<g id="node1" class="node">
<title>Start</title>
<ellipse fill="none" stroke="black" cx="409.4" cy="-560.6" rx="38.41" ry="18"/>
<text xml:space="preserve" text-anchor="middle" x="409.4" y="-556.4" font-family="Helvetica,sans-Serif" font-size="14.00">Başlat</text>
</g>
<!-- KullaniciGirisi -->
<g id="node2" class="node">
<title>KullaniciGirisi</title>
<path fill="none" stroke="black" d="M478.15,-505.6C478.15,-505.6 340.66,-505.6 340.66,-505.6 334.66,-505.6 328.66,-499.6 328.66,-493.6 328.66,-493.6 328.66,-481.6 328.66,-481.6 328.66,-475.6 334.66,-469.6 340.66,-469.6 340.66,-469.6 478.15,-469.6 478.15,-469.6 484.15,-469.6 490.15,-475.6 490.15,-481.6 490.15,-481.6 490.15,-493.6 490.15,-493.6 490.15,-499.6 484.15,-505.6 478.15,-505.6"/>
<text xml:space="preserve" text-anchor="middle" x="409.4" y="-483.4" font-family="Helvetica,sans-Serif" font-size="14.00">Kullanıcı Girişi / Kayıt</text>
</g>
<!-- Start&#45;&gt;KullaniciGirisi -->
<g id="edge1" class="edge">
<title>Start-&gt;KullaniciGirisi</title>
<path fill="none" stroke="black" d="M409.4,-542.41C409.4,-534.83 409.4,-525.7 409.4,-517.14"/>
<polygon fill="black" stroke="black" points="412.9,-517.14 409.4,-507.14 405.9,-517.14 412.9,-517.14"/>
</g>
<!-- AnaMenu -->
<g id="node3" class="node">
<title>AnaMenu</title>
<path fill="none" stroke="black" d="M397.71,-429.9C397.71,-429.9 343.24,-417.3 343.24,-417.3 337.39,-415.95 337.39,-413.25 343.24,-411.9 343.24,-411.9 397.71,-399.3 397.71,-399.3 403.56,-397.95 415.25,-397.95 421.09,-399.3 421.09,-399.3 475.57,-411.9 475.57,-411.9 481.41,-413.25 481.41,-415.95 475.57,-417.3 475.57,-417.3 421.09,-429.9 421.09,-429.9 415.25,-431.25 403.56,-431.25 397.71,-429.9"/>
<text xml:space="preserve" text-anchor="middle" x="409.4" y="-410.4" font-family="Helvetica,sans-Serif" font-size="14.00">Ana Menü</text>
</g>
<!-- KullaniciGirisi&#45;&gt;AnaMenu -->
<g id="edge2" class="edge">
<title>KullaniciGirisi-&gt;AnaMenu</title>
<path fill="none" stroke="black" d="M409.4,-469.41C409.4,-461.83 409.4,-452.7 409.4,-444.14"/>
<polygon fill="black" stroke="black" points="412.9,-444.14 409.4,-434.14 405.9,-444.14 412.9,-444.14"/>
</g>
<!-- UrunleriListele -->
<g id="node4" class="node">
<title>UrunleriListele</title>
<path fill="none" stroke="black" d="M604.92,-343.8C604.92,-343.8 521.88,-343.8 521.88,-343.8 515.88,-343.8 509.88,-337.8 509.88,-331.8 509.88,-331.8 509.88,-319.8 509.88,-319.8 509.88,-313.8 515.88,-307.8 521.88,-307.8 521.88,-307.8 604.92,-307.8 604.92,-307.8 610.92,-307.8 616.92,-313.8 616.92,-319.8 616.92,-319.8 616.92,-331.8 616.92,-331.8 616.92,-337.8 610.92,-343.8 604.92,-343.8"/>
<text xml:space="preserve" text-anchor="middle" x="563.4" y="-321.6" font-family="Helvetica,sans-Serif" font-size="14.00">Ürünleri Listele</text>
</g>
<!-- AnaMenu&#45;&gt;UrunleriListele -->
<g id="edge3" class="edge">
<title>AnaMenu-&gt;UrunleriListele</title>
<path fill="none" stroke="black" d="M439.38,-403.14C455.79,-396.92 476.22,-388.34 493.4,-378.6 507.44,-370.64 521.95,-360.3 534.09,-350.96"/>
<polygon fill="black" stroke="black" points="535.97,-353.93 541.68,-345.01 531.65,-348.43 535.97,-353.93"/>
<text xml:space="preserve" text-anchor="middle" x="544.78" y="-366" font-family="Times,serif" font-size="14.00">1. Ürünler</text>
</g>
<!-- SepetiGoruntule -->
<g id="node7" class="node">
<title>SepetiGoruntule</title>
<path fill="none" stroke="black" d="M215.93,-343.8C215.93,-343.8 118.88,-343.8 118.88,-343.8 112.88,-343.8 106.88,-337.8 106.88,-331.8 106.88,-331.8 106.88,-319.8 106.88,-319.8 106.88,-313.8 112.88,-307.8 118.88,-307.8 118.88,-307.8 215.93,-307.8 215.93,-307.8 221.93,-307.8 227.93,-313.8 227.93,-319.8 227.93,-319.8 227.93,-331.8 227.93,-331.8 227.93,-337.8 221.93,-343.8 215.93,-343.8"/>
<text xml:space="preserve" text-anchor="middle" x="167.4" y="-321.6" font-family="Helvetica,sans-Serif" font-size="14.00">Sepeti Görüntüle</text>
</g>
<!-- AnaMenu&#45;&gt;SepetiGoruntule -->
<g id="edge7" class="edge">
<title>AnaMenu-&gt;SepetiGoruntule</title>
<path fill="none" stroke="black" d="M371.66,-404.84C346.12,-398.51 311.8,-389.24 282.3,-378.6 258.79,-370.12 233.39,-358.9 212.47,-349.07"/>
<polygon fill="black" stroke="black" points="214.18,-346.01 203.64,-344.87 211.17,-352.33 214.18,-346.01"/>
<text xml:space="preserve" text-anchor="middle" x="304.85" y="-366" font-family="Times,serif" font-size="14.00">2. Sepet</text>
</g>
<!-- SiparisGecmisi -->
<g id="node12" class="node">
<title>SiparisGecmisi</title>
<path fill="none" stroke="black" d="M387.25,-343.8C387.25,-343.8 257.55,-343.8 257.55,-343.8 251.55,-343.8 245.55,-337.8 245.55,-331.8 245.55,-331.8 245.55,-319.8 245.55,-319.8 245.55,-313.8 251.55,-307.8 257.55,-307.8 257.55,-307.8 387.25,-307.8 387.25,-307.8 393.25,-307.8 399.25,-313.8 399.25,-319.8 399.25,-319.8 399.25,-331.8 399.25,-331.8 399.25,-337.8 393.25,-343.8 387.25,-343.8"/>
<text xml:space="preserve" text-anchor="middle" x="322.4" y="-321.6" font-family="Helvetica,sans-Serif" font-size="14.00">Sipariş Geçmişini Gör</text>
</g>
<!-- AnaMenu&#45;&gt;SiparisGecmisi -->
<g id="edge14" class="edge">
<title>AnaMenu-&gt;SiparisGecmisi</title>
<path fill="none" stroke="black" d="M388.14,-401.11C378.69,-395 367.8,-387.13 359.19,-378.6 351.76,-371.23 344.79,-362.21 338.95,-353.77"/>
<polygon fill="black" stroke="black" points="341.93,-351.94 333.49,-345.53 336.09,-355.8 341.93,-351.94"/>
<text xml:space="preserve" text-anchor="middle" x="393.8" y="-366" font-family="Times,serif" font-size="14.00">3. Siparişler</text>
</g>
<!-- Cikis -->
<g id="node13" class="node">
<title>Cikis</title>
<ellipse fill="none" stroke="black" cx="454.4" cy="-325.8" rx="37.33" ry="18"/>
<text xml:space="preserve" text-anchor="middle" x="454.4" y="-321.6" font-family="Helvetica,sans-Serif" font-size="14.00">Çıkış</text>
</g>
<!-- AnaMenu&#45;&gt;Cikis -->
<g id="edge16" class="edge">
<title>AnaMenu-&gt;Cikis</title>
<path fill="none" stroke="black" d="M420.09,-398.63C424.2,-392.56 428.76,-385.39 432.4,-378.6 436.48,-370.99 440.36,-362.46 443.7,-354.56"/>
<polygon fill="black" stroke="black" points="446.91,-355.94 447.45,-345.36 440.43,-353.3 446.91,-355.94"/>
<text xml:space="preserve" text-anchor="middle" x="465" y="-366" font-family="Times,serif" font-size="14.00">4. Çıkış</text>
</g>
<!-- UrunSec -->
<g id="node5" class="node">
<title>UrunSec</title>
<path fill="none" stroke="black" d="M596.8,-270.8C596.8,-270.8 548,-270.8 548,-270.8 542,-270.8 536,-264.8 536,-258.8 536,-258.8 536,-246.8 536,-246.8 536,-240.8 542,-234.8 548,-234.8 548,-234.8 596.8,-234.8 596.8,-234.8 602.8,-234.8 608.8,-240.8 608.8,-246.8 608.8,-246.8 608.8,-258.8 608.8,-258.8 608.8,-264.8 602.8,-270.8 596.8,-270.8"/>
<text xml:space="preserve" text-anchor="middle" x="572.4" y="-248.6" font-family="Helvetica,sans-Serif" font-size="14.00">Ürün Seç</text>
</g>
<!-- UrunleriListele&#45;&gt;UrunSec -->
<g id="edge4" class="edge">
<title>UrunleriListele-&gt;UrunSec</title>
<path fill="none" stroke="black" d="M565.58,-307.61C566.55,-299.94 567.73,-290.69 568.82,-282.04"/>
<polygon fill="black" stroke="black" points="572.27,-282.69 570.05,-272.33 565.32,-281.81 572.27,-282.69"/>
</g>
<!-- SepeteEkle -->
<g id="node6" class="node">
<title>SepeteEkle</title>
<path fill="none" stroke="black" d="M629.15,-182C629.15,-182 561.65,-182 561.65,-182 555.65,-182 549.65,-176 549.65,-170 549.65,-170 549.65,-158 549.65,-158 549.65,-152 555.65,-146 561.65,-146 561.65,-146 629.15,-146 629.15,-146 635.15,-146 641.15,-152 641.15,-158 641.15,-158 641.15,-170 641.15,-170 641.15,-176 635.15,-182 629.15,-182"/>
<text xml:space="preserve" text-anchor="middle" x="595.4" y="-159.8" font-family="Helvetica,sans-Serif" font-size="14.00">Sepete Ekle</text>
</g>
<!-- UrunSec&#45;&gt;SepeteEkle -->
<g id="edge5" class="edge">
<title>UrunSec-&gt;SepeteEkle</title>
<path fill="none" stroke="black" d="M576.95,-234.65C580.08,-222.84 584.31,-206.87 587.93,-193.21"/>
<polygon fill="black" stroke="black" points="591.22,-194.44 590.4,-183.87 584.46,-192.64 591.22,-194.44"/>
</g>
<!-- SepeteEkle&#45;&gt;AnaMenu -->
<g id="edge6" class="edge">
<title>SepeteEkle-&gt;AnaMenu</title>
<path fill="none" stroke="black" d="M605.23,-182.36C622.64,-215.65 654.55,-289.91 626.4,-343.8 613.87,-367.8 601.26,-367.87 576.4,-378.6 543.56,-392.77 504.54,-401.36 472.48,-406.48"/>
<polygon fill="black" stroke="black" points="472.31,-402.97 462.95,-407.93 473.36,-409.89 472.31,-402.97"/>
</g>
<!-- OdemeKontrol -->
<g id="node8" class="node">
<title>OdemeKontrol</title>
<path fill="none" stroke="black" d="M155.47,-269.52C155.47,-269.52 11.93,-254.08 11.93,-254.08 5.97,-253.44 5.97,-252.16 11.93,-251.52 11.93,-251.52 155.47,-236.08 155.47,-236.08 161.44,-235.44 173.37,-235.44 179.33,-236.08 179.33,-236.08 322.87,-251.52 322.87,-251.52 328.84,-252.16 328.84,-253.44 322.87,-254.08 322.87,-254.08 179.33,-269.52 179.33,-269.52 173.37,-270.16 161.44,-270.16 155.47,-269.52"/>
<text xml:space="preserve" text-anchor="middle" x="167.4" y="-248.6" font-family="Helvetica,sans-Serif" font-size="14.00">Satın Almak İstiyor mu?</text>
</g>
<!-- SepetiGoruntule&#45;&gt;OdemeKontrol -->
<g id="edge8" class="edge">
<title>SepetiGoruntule-&gt;OdemeKontrol</title>
<path fill="none" stroke="black" d="M167.4,-307.61C167.4,-300.03 167.4,-290.9 167.4,-282.34"/>
<polygon fill="black" stroke="black" points="170.9,-282.34 167.4,-272.34 163.9,-282.34 170.9,-282.34"/>
</g>
<!-- OdemeKontrol&#45;&gt;AnaMenu -->
<g id="edge13" class="edge">
<title>OdemeKontrol-&gt;AnaMenu</title>
<path fill="none" stroke="black" d="M119.48,-266.06C98.11,-274.18 74.96,-287.24 62.42,-307.8 54.08,-321.46 52.28,-331.42 62.42,-343.8 96.39,-385.29 245.32,-402.65 336.67,-409.5"/>
<polygon fill="black" stroke="black" points="336.33,-412.98 346.55,-410.21 336.83,-406 336.33,-412.98"/>
<text xml:space="preserve" text-anchor="middle" x="79.91" y="-321.6" font-family="Times,serif" font-size="14.00">Hayır</text>
</g>
<!-- OdemeYap -->
<g id="node9" class="node">
<title>OdemeYap</title>
<path fill="none" stroke="black" d="M436.2,-182C436.2,-182 372.6,-182 372.6,-182 366.6,-182 360.6,-176 360.6,-170 360.6,-170 360.6,-158 360.6,-158 360.6,-152 366.6,-146 372.6,-146 372.6,-146 436.2,-146 436.2,-146 442.2,-146 448.2,-152 448.2,-158 448.2,-158 448.2,-170 448.2,-170 448.2,-176 442.2,-182 436.2,-182"/>
<text xml:space="preserve" text-anchor="middle" x="404.4" y="-159.8" font-family="Helvetica,sans-Serif" font-size="14.00">Ödeme Yap</text>
</g>
<!-- OdemeKontrol&#45;&gt;OdemeYap -->
<g id="edge9" class="edge">
<title>OdemeKontrol-&gt;OdemeYap</title>
<path fill="none" stroke="black" d="M204.17,-238.33C243.09,-224.08 304.94,-201.43 349.6,-185.07"/>
<polygon fill="black" stroke="black" points="350.67,-188.41 358.86,-181.68 348.26,-181.83 350.67,-188.41"/>
<text xml:space="preserve" text-anchor="middle" x="319.96" y="-204.2" font-family="Times,serif" font-size="14.00">Evet</text>
</g>
<!-- SiparisiKaydet -->
<g id="node10" class="node">
<title>SiparisiKaydet</title>
<path fill="none" stroke="black" d="M618.48,-109C618.48,-109 532.32,-109 532.32,-109 526.32,-109 520.32,-103 520.32,-97 520.32,-97 520.32,-85 520.32,-85 520.32,-79 526.32,-73 532.32,-73 532.32,-73 618.48,-73 618.48,-73 624.48,-73 630.48,-79 630.48,-85 630.48,-85 630.48,-97 630.48,-97 630.48,-103 624.48,-109 618.48,-109"/>
<text xml:space="preserve" text-anchor="middle" x="575.4" y="-86.8" font-family="Helvetica,sans-Serif" font-size="14.00">Siparişi Kaydet</text>
</g>
<!-- OdemeYap&#45;&gt;SiparisiKaydet -->
<g id="edge10" class="edge">
<title>OdemeYap-&gt;SiparisiKaydet</title>
<path fill="none" stroke="black" d="M446.23,-145.63C469.32,-136.05 498.2,-124.05 522.8,-113.84"/>
<polygon fill="black" stroke="black" points="524.12,-117.08 532.01,-110.02 521.43,-110.62 524.12,-117.08"/>
</g>
<!-- SepetiTemizle -->
<g id="node11" class="node">
<title>SepetiTemizle</title>
<path fill="none" stroke="black" d="M683.7,-36C683.7,-36 599.11,-36 599.11,-36 593.11,-36 587.11,-30 587.11,-24 587.11,-24 587.11,-12 587.11,-12 587.11,-6 593.11,0 599.11,0 599.11,0 683.7,0 683.7,0 689.7,0 695.7,-6 695.7,-12 695.7,-12 695.7,-24 695.7,-24 695.7,-30 689.7,-36 683.7,-36"/>
<text xml:space="preserve" text-anchor="middle" x="641.4" y="-13.8" font-family="Helvetica,sans-Serif" font-size="14.00">Sepeti Temizle</text>
</g>
<!-- SiparisiKaydet&#45;&gt;SepetiTemizle -->
<g id="edge11" class="edge">
<title>SiparisiKaydet-&gt;SepetiTemizle</title>
<path fill="none" stroke="black" d="M591.38,-72.81C599.32,-64.27 609.08,-53.77 617.86,-44.32"/>
<polygon fill="black" stroke="black" points="620.3,-46.84 624.54,-37.14 615.17,-42.08 620.3,-46.84"/>
</g>
<!-- SepetiTemizle&#45;&gt;AnaMenu -->
<g id="edge12" class="edge">
<title>SepetiTemizle-&gt;AnaMenu</title>
<path fill="none" stroke="black" d="M658.73,-36.32C670.3,-49.77 683.4,-69.52 683.4,-90 683.4,-326.8 683.4,-326.8 683.4,-326.8 683.4,-370.94 552.52,-395.53 471.68,-406.51"/>
<polygon fill="black" stroke="black" points="471.57,-402.99 462.12,-407.77 472.49,-409.93 471.57,-402.99"/>
</g>
<!-- SiparisGecmisi&#45;&gt;AnaMenu -->
<g id="edge15" class="edge">
<title>SiparisGecmisi-&gt;AnaMenu</title>
<path fill="none" stroke="black" d="M325.33,-343.84C327.95,-354.83 332.78,-368.84 341.4,-378.6 348.71,-386.87 358.44,-393.46 368.25,-398.59"/>
<polygon fill="black" stroke="black" points="366.5,-401.64 377.04,-402.77 369.51,-395.31 366.5,-401.64"/>
</g>
</g>
</svg>